ffmpeg started on 2016-12-07 at 11:51:51
Report written to "Output/x264/results/ffmpeg/crowd_run_2160p50slow7000k.log"
Command line:
Tools/ffmpeg/ffmpeg -benchmark -y -i Input/y4m/crowd_run_2160p50.y4m -c:v libx264 -preset slow -b:v 7000k -an Output/x264/encoded/crowd_run_2160p50slow7000k.mkv
ffmpeg version N-82227-gdb23fde Copyright (c) 2000-2016 the FFmpeg developers
  built with gcc 5.4.0 (Ubuntu 5.4.0-6ubuntu1~16.04.2) 20160609
  configuration: --prefix=/home/jaroslav/ffmpeg_build --pkg-config-flags=--static --extra-cflags=-I/home/jaroslav/ffmpeg_build/include --extra-ldflags=-L/home/jaroslav/ffmpeg_build/lib --bindir=/home/jaroslav/bin --enable-gpl --enable-libass --enable-libfdk-aac --enable-libfreetype --enable-libmp3lame --enable-libopus --enable-libtheora --enable-libvorbis --enable-libvpx --enable-libx264 --enable-libx265 --enable-nvenc --enable-libmfx --enable-libxvid --enable-libgsm --enable-libopencore-amrnb --enable-version3 --enable-nonfree
  libavutil      55. 35.100 / 55. 35.100
  libavcodec     57. 66.101 / 57. 66.101
  libavformat    57. 57.100 / 57. 57.100
  libavdevice    57.  2.100 / 57.  2.100
  libavfilter     6. 66.100 /  6. 66.100
  libswscale      4.  3.100 /  4.  3.100
  libswresample   2.  4.100 /  2.  4.100
  libpostproc    54.  2.100 / 54.  2.100
Input #0, yuv4mpegpipe, from 'Input/y4m/crowd_run_2160p50.y4m':
  Duration: 00:00:10.00, start: 0.000000, bitrate: 4976642 kb/s
    Stream #0:0: Video: rawvideo (I420 / 0x30323449), yuv420p(progressive), 3840x2160, SAR 1:1 DAR 16:9, 50 fps, 50 tbr, 50 tbn, 50 tbc
[libx264 @ 0x3c111c0] using SAR=1/1
[libx264 @ 0x3c111c0] using cpu capabilities: MMX2 SSE2Fast SSSE3 SSE4.2 AVX FMA3 AVX2 LZCNT BMI2
[libx264 @ 0x3c111c0] profile High, level 5.2
[libx264 @ 0x3c111c0] 264 - core 148 - H.264/MPEG-4 AVC codec - Copyleft 2003-2016 - http://www.videolan.org/x264.html - options: cabac=1 ref=5 deblock=1:0:0 analyse=0x3:0x113 me=hex subme=8 psy=1 psy_rd=1.00:0.00 mixed_ref=1 me_range=16 chroma_me=1 trellis=2 8x8dct=1 cqm=0 deadzone=21,11 fast_pskip=1 chroma_qp_offset=-2 threads=6 lookahead_threads=1 sliced_threads=0 nr=0 decimate=1 interlaced=0 bluray_compat=0 constrained_intra=0 bframes=3 b_pyramid=2 b_adapt=1 b_bias=0 direct=3 weightb=1 open_gop=0 weightp=2 keyint=250 keyint_min=25 scenecut=40 intra_refresh=0 rc_lookahead=50 rc=abr mbtree=1 bitrate=7000 ratetol=1.0 qcomp=0.60 qpmin=0 qpmax=69 qpstep=4 ip_ratio=1.40 aq=1:1.00
Output #0, matroska, to 'Output/x264/encoded/crowd_run_2160p50slow7000k.mkv':
  Metadata:
    encoder         : Lavf57.57.100
    Stream #0:0: Video: h264 (libx264) (H264 / 0x34363248), yuv420p, 3840x2160 [SAR 1:1 DAR 16:9], q=-1--1, 7000 kb/s, 50 fps, 1k tbn, 50 tbc
    Metadata:
      encoder         : Lavc57.66.101 libx264
    Side data:
      cpb: bitrate max/min/avg: 0/0/7000000 buffer size: 0 vbv_delay: -1
Stream mapping:
  Stream #0:0 -> #0:0 (rawvideo (native) -> h264 (libx264))
Press [q] to stop, [?] for help
frame=   19 fps=0.0 q=0.0 size=       0kB time=00:00:00.00 bitrate=N/A speed=   0x    frame=   31 fps= 30 q=0.0 size=       0kB time=00:00:00.00 bitrate=N/A speed=   0x    frame=   39 fps= 25 q=0.0 size=       0kB time=00:00:00.00 bitrate=N/A speed=   0x    frame=   47 fps= 22 q=0.0 size=       0kB time=00:00:00.00 bitrate=N/A speed=   0x    frame=   55 fps= 21 q=0.0 size=       0kB time=00:00:00.00 bitrate=N/A speed=   0x    frame=   57 fps= 11 q=0.0 size=       0kB time=00:00:00.00 bitrate=N/A speed=   0x    frame=   62 fps= 10 q=38.0 size=       1kB time=-00:00:00.01 bitrate=N/A speed=N/A    frame=   66 fps=9.9 q=42.0 size=       1kB time=00:00:00.06 bitrate=  96.3kbits/s speed=0.00917x    frame=   68 fps=9.4 q=44.0 size=       1kB time=00:00:00.10 bitrate=  58.1kbits/s speed=0.014x    frame=   73 fps=9.4 q=53.0 size=       1kB time=00:00:00.20 bitrate=  29.2kbits/s speed=0.0259x    frame=   78 fps=9.4 q=52.0 size=       1kB time=00:00:00.30 bitrate=  19.5kbits/s speed=0.0364x    frame=   83 fps=9.3 q=52.0 size=       1kB time=00:00:00.40 bitrate=  14.6kbits/s speed=0.0448x    frame=   89 fps=9.3 q=51.0 size=       1kB time=00:00:00.52 bitrate=  11.3kbits/s speed=0.0545x    frame=   95 fps=9.4 q=51.0 size=       1kB time=00:00:00.64 bitrate=   9.2kbits/s speed=0.0636x    frame=   99 fps=9.3 q=51.0 size=       1kB time=00:00:00.72 bitrate=   8.1kbits/s speed=0.0679x    frame=  104 fps=9.3 q=51.0 size=       1kB time=00:00:00.82 bitrate=   7.2kbits/s speed=0.0735x    frame=  111 fps=9.3 q=51.0 size=       1kB time=00:00:00.96 bitrate=   6.1kbits/s speed=0.0809x    frame=  118 fps=9.5 q=50.0 size=       1kB time=00:00:01.10 bitrate=   5.3kbits/s speed=0.0883x    frame=  123 fps=9.4 q=50.0 size=       1kB time=00:00:01.20 bitrate=   4.9kbits/s speed=0.092x    frame=  128 fps=9.4 q=50.0 size=       1kB time=00:00:01.30 bitrate=   4.5kbits/s speed=0.0953x    frame=  135 fps=9.4 q=50.0 size=       1kB time=00:00:01.44 bitrate=   4.1kbits/s speed=0.0999x    frame=  142 fps=9.5 q=50.0 size=       1kB time=00:00:01.58 bitrate=   3.7kbits/s speed=0.105x    frame=  147 fps=9.5 q=50.0 size=       1kB time=00:00:01.68 bitrate=   3.5kbits/s speed=0.108x    frame=  149 fps=9.3 q=49.0 size=       1kB time=00:00:01.72 bitrate=   3.4kbits/s speed=0.107x    frame=  155 fps=9.3 q=49.0 size=       1kB time=00:00:01.84 bitrate=   3.2kbits/s speed=0.11x    frame=  162 fps=9.4 q=49.0 size=       1kB time=00:00:01.98 bitrate=   3.0kbits/s speed=0.115x    frame=  166 fps=9.4 q=49.0 size=       1kB time=00:00:02.06 bitrate=   2.8kbits/s speed=0.116x    frame=  171 fps=9.3 q=49.0 size=       1kB time=00:00:02.16 bitrate=   2.7kbits/s speed=0.117x    frame=  177 fps=9.3 q=49.0 size=       1kB time=00:00:02.28 bitrate=   2.6kbits/s speed=0.12x    frame=  181 fps=9.3 q=49.0 size=       1kB time=00:00:02.36 bitrate=   2.5kbits/s speed=0.121x    frame=  187 fps=9.3 q=49.0 size=       1kB time=00:00:02.48 bitrate=   2.4kbits/s speed=0.123x    frame=  195 fps=9.3 q=49.0 size=       1kB time=00:00:02.64 bitrate=   2.2kbits/s speed=0.125x    frame=  202 fps=9.3 q=49.0 size=       1kB time=00:00:02.78 bitrate=   2.1kbits/s speed=0.129x    frame=  207 fps=9.3 q=49.0 size=       1kB time=00:00:02.88 bitrate=   2.0kbits/s speed=0.129x    frame=  211 fps=9.2 q=49.0 size=       1kB time=00:00:02.96 bitrate=   2.0kbits/s speed=0.13x    frame=  217 fps=9.3 q=49.0 size=       1kB time=00:00:03.08 bitrate=   1.9kbits/s speed=0.132x    frame=  223 fps=9.3 q=49.0 size=       1kB time=00:00:03.20 bitrate=   1.8kbits/s speed=0.133x    frame=  228 fps=9.2 q=49.0 size=       1kB time=00:00:03.30 bitrate=   1.8kbits/s speed=0.134x    frame=  235 fps=9.2 q=49.0 size=       1kB time=00:00:03.44 bitrate=   1.7kbits/s speed=0.135x    frame=  240 fps=9.2 q=49.0 size=       1kB time=00:00:03.54 bitrate=   1.7kbits/s speed=0.136x    frame=  245 fps=9.2 q=49.0 size=       1kB time=00:00:03.64 bitrate=   1.6kbits/s speed=0.137x    frame=  251 fps=9.2 q=49.0 size=       1kB time=00:00:03.76 bitrate=   1.6kbits/s speed=0.138x    frame=  255 fps=9.2 q=49.0 size=       1kB time=00:00:03.84 bitrate=   1.5kbits/s speed=0.138x    frame=  261 fps=9.2 q=48.0 size=       1kB time=00:00:03.96 bitrate=   1.5kbits/s speed=0.14x    frame=  267 fps=9.2 q=48.0 size=       1kB time=00:00:04.08 bitrate=   1.4kbits/s speed=0.14x    frame=  274 fps=9.2 q=48.0 size=       1kB time=00:00:04.22 bitrate=   1.4kbits/s speed=0.142x    frame=  280 fps=9.2 q=48.0 size=       1kB time=00:00:04.34 bitrate=   1.4kbits/s speed=0.142x    frame=  284 fps=9.1 q=48.0 size=       1kB time=00:00:04.42 bitrate=   1.3kbits/s speed=0.142x    frame=  291 fps=9.2 q=48.0 size=       1kB time=00:00:04.56 bitrate=   1.3kbits/s speed=0.143x    frame=  296 fps=9.1 q=48.0 size=       1kB time=00:00:04.66 bitrate=   1.3kbits/s speed=0.144x    frame=  300 fps=9.1 q=48.0 size=       1kB time=00:00:04.74 bitrate=   1.2kbits/s speed=0.144x    frame=  307 fps=8.9 q=49.0 size=       1kB time=00:00:04.88 bitrate=   1.2kbits/s speed=0.141x    frame=  314 fps=8.9 q=49.0 size=    4399kB time=00:00:05.02 bitrate=7177.9kbits/s speed=0.142x    frame=  319 fps=8.9 q=49.0 size=    4399kB time=00:00:05.12 bitrate=7037.8kbits/s speed=0.143x    frame=  325 fps=8.9 q=49.0 size=    4399kB time=00:00:05.24 bitrate=6876.6kbits/s speed=0.143x    frame=  329 fps=8.8 q=49.0 size=    4399kB time=00:00:05.32 bitrate=6773.2kbits/s speed=0.142x    frame=  335 fps=8.8 q=49.0 size=    4399kB time=00:00:05.44 bitrate=6623.9kbits/s speed=0.143x    frame=  341 fps=8.8 q=49.0 size=    4399kB time=00:00:05.56 bitrate=6480.9kbits/s speed=0.143x    frame=  347 fps=8.8 q=49.0 size=    4399kB time=00:00:05.68 bitrate=6344.0kbits/s speed=0.145x    frame=  353 fps=8.8 q=49.0 size=    4399kB time=00:00:05.80 bitrate=6212.8kbits/s speed=0.144x    frame=  360 fps=8.8 q=49.0 size=    4399kB time=00:00:05.94 bitrate=6066.4kbits/s speed=0.146x    frame=  365 fps=8.8 q=49.0 size=    4399kB time=00:00:06.04 bitrate=5966.0kbits/s speed=0.145x    frame=  371 fps=8.8 q=49.0 size=    4399kB time=00:00:06.16 bitrate=5849.8kbits/s speed=0.146x    frame=  375 fps=8.8 q=49.0 size=    4399kB time=00:00:06.24 bitrate=5774.8kbits/s speed=0.147x    frame=  381 fps=8.8 q=49.0 size=    4399kB time=00:00:06.36 bitrate=5665.8kbits/s speed=0.147x    frame=  386 fps=8.8 q=49.0 size=    4399kB time=00:00:06.46 bitrate=5578.1kbits/s speed=0.147x    frame=  390 fps=8.8 q=49.0 size=    4399kB time=00:00:06.54 bitrate=5509.9kbits/s speed=0.147x    frame=  397 fps=8.8 q=49.0 size=    4399kB time=00:00:06.68 bitrate=5394.5kbits/s speed=0.148x    frame=  403 fps=8.8 q=49.0 size=    4399kB time=00:00:06.80 bitrate=5299.3kbits/s speed=0.149x    frame=  406 fps=8.8 q=49.0 size=    4399kB time=00:00:06.86 bitrate=5252.9kbits/s speed=0.148x    frame=  413 fps=8.8 q=49.0 size=    4399kB time=00:00:07.00 bitrate=5147.9kbits/s speed=0.149x    frame=  419 fps=8.8 q=49.0 size=    4399kB time=00:00:07.12 bitrate=5061.1kbits/s speed=0.15x    frame=  425 fps=8.8 q=49.0 size=    4399kB time=00:00:07.24 bitrate=4977.3kbits/s speed=0.15x    frame=  429 fps=8.8 q=49.0 size=    4399kB time=00:00:07.32 bitrate=4922.9kbits/s speed=0.15x    frame=  436 fps=8.8 q=49.0 size=    4399kB time=00:00:07.46 bitrate=4830.5kbits/s speed=0.151x    frame=  439 fps=8.8 q=49.0 size=    4399kB time=00:00:07.52 bitrate=4792.0kbits/s speed=0.151x    frame=  445 fps=8.8 q=49.0 size=    4399kB time=00:00:07.64 bitrate=4716.7kbits/s speed=0.151x    frame=  450 fps=8.8 q=49.0 size=    4399kB time=00:00:07.74 bitrate=4655.8kbits/s speed=0.151x    frame=  455 fps=8.8 q=49.0 size=    4399kB time=00:00:07.84 bitrate=4596.4kbits/s speed=0.152x    frame=  461 fps=8.8 q=49.0 size=    4399kB time=00:00:07.96 bitrate=4527.1kbits/s speed=0.152x    frame=  465 fps=8.8 q=49.0 size=    4399kB time=00:00:08.04 bitrate=4482.1kbits/s speed=0.152x    frame=  470 fps=8.8 q=49.0 size=    4399kB time=00:00:08.14 bitrate=4427.0kbits/s speed=0.153x    frame=  474 fps=8.8 q=48.0 size=    4399kB time=00:00:08.22 bitrate=4383.9kbits/s speed=0.152x    frame=  480 fps=8.8 q=48.0 size=    4399kB time=00:00:08.34 bitrate=4320.9kbits/s speed=0.153x    frame=  485 fps=8.8 q=48.0 size=    4399kB time=00:00:08.44 bitrate=4269.7kbits/s speed=0.153x    frame=  490 fps=8.8 q=48.0 size=    4399kB time=00:00:08.54 bitrate=4219.7kbits/s speed=0.153x    frame=  494 fps=8.8 q=48.0 size=    4399kB time=00:00:08.62 bitrate=4180.5kbits/s speed=0.153x    frame=  500 fps=8.8 q=48.0 size=    4399kB time=00:00:08.74 bitrate=4123.1kbits/s speed=0.154x    frame=  500 fps=8.0 q=-1.0 Lsize=    8620kB time=00:00:09.94 bitrate=7103.3kbits/s speed=0.159x    
video:8616kB audio:0kB subtitle:0kB other streams:0kB global headers:0kB muxing overhead: 0.050497%
bench: utime=215.500s
bench: maxrss=2128156kB
[libx264 @ 0x3c111c0] frame I:2     Avg QP:38.20  size:253506
[libx264 @ 0x3c111c0] frame P:126   Avg QP:47.60  size: 33397
[libx264 @ 0x3c111c0] frame B:372   Avg QP:49.74  size: 11039
[libx264 @ 0x3c111c0] consecutive B-frames:  0.8%  0.0%  0.0% 99.2%
[libx264 @ 0x3c111c0] mb I  I16..4: 31.8% 61.6%  6.6%
[libx264 @ 0x3c111c0] mb P  I16..4:  4.0%  2.4%  0.0%  P16..4: 28.4%  2.3%  3.4%  0.0%  0.0%    skip:59.5%
[libx264 @ 0x3c111c0] mb B  I16..4:  0.0%  0.0%  0.0%  B16..8: 29.1%  0.5%  0.0%  direct: 0.3%  skip:70.0%  L0:37.2% L1:62.6% BI: 0.2%
[libx264 @ 0x3c111c0] final ratefactor: 40.47
[libx264 @ 0x3c111c0] 8x8 transform intra:42.6% inter:94.0%
[libx264 @ 0x3c111c0] direct mvs  spatial:98.9% temporal:1.1%
[libx264 @ 0x3c111c0] coded y,uvDC,uvAC intra: 15.6% 41.9% 10.3% inter: 1.0% 4.3% 0.0%
[libx264 @ 0x3c111c0] i16 v,h,dc,p: 40% 24%  7% 29%
[libx264 @ 0x3c111c0] i8 v,h,dc,ddl,ddr,vr,hd,vl,hu:  8%  4% 17% 12% 14% 13% 13% 11%  9%
[libx264 @ 0x3c111c0] i4 v,h,dc,ddl,ddr,vr,hd,vl,hu:  5%  3%  2% 15% 18% 15% 16% 11% 15%
[libx264 @ 0x3c111c0] i8c dc,h,v,p: 63% 16% 14%  7%
[libx264 @ 0x3c111c0] Weighted P-Frames: Y:1.6% UV:0.8%
[libx264 @ 0x3c111c0] ref P L0: 68.1%  2.1% 18.1%  5.6%  6.1%  0.1%
[libx264 @ 0x3c111c0] ref B L0: 92.0%  5.8%  1.6%  0.6%
[libx264 @ 0x3c111c0] ref B L1: 97.8%  2.2%
[libx264 @ 0x3c111c0] kb/s:7057.32
